<?xml version="1.0" encoding="utf-8"?>
<!-- Generator: Adobe Illustrator 25.1.0, SVG Export Plug-In . SVG Version: 6.00 Build 0)  -->
<svg version="1.1" id="Capa_1" xmlns="http://www.w3.org/2000/svg" xmlns:xlink="http://www.w3.org/1999/xlink" x="0px" y="0px"
	 viewBox="0 0 20 30" width="20" height="30" style="enable-background:new 0 0 20 30;" xml:space="preserve">
<style type="text/css">
	.st0{fill:#FFE200;}
	.st1{fill:#404548;}
</style>
<g>
	<path class="st0" d="M19.8,10.1c0-5.4-4.4-9.8-9.8-9.8s-9.8,4.4-9.8,9.8S10,29.7,10,29.7S19.8,15.5,19.8,10.1z"/>
	<path class="st1" d="M10.8,4.6c0.1,0,0.2,0,0.2,0c0.1,0.1,0.1,0.2,0.1,0.3C11.1,4.9,11.1,5,11,5c-0.2,0.1-0.4,0.2-0.7,0.3
		c-0.1,0-0.2,0-0.2,0C10.1,5.2,10,5.1,10.1,5c0,0,0.1-0.1,0.1-0.1C10.4,4.8,10.6,4.7,10.8,4.6z"/>
	<path class="st1" d="M5.4,5.9c0-0.2,0.2-0.3,0.3-0.3c0.1,0,0.2,0,0.3,0c0.1,0,0.2,0.1,0.2,0.2C6.4,6.4,6.7,7,6.9,7.5
		c0.3-0.6,0.5-1.1,0.8-1.7c0-0.1,0.1-0.1,0.1-0.1C7.8,5.6,7.9,5.6,8,5.6c0.1,0,0.1,0,0.2,0c0.1,0,0.2,0.1,0.2,0.2c0,0.1,0,0.1,0,0.2
		c0,1.1,0,2.2,0,3.3c0,0.1,0,0.2-0.1,0.2C8.3,9.7,8.2,9.7,8.1,9.7H8C8,9.7,7.9,9.6,7.8,9.6c0-0.1-0.1-0.1-0.1-0.2c0-0.7,0-1.4,0-2.1
		C7.6,7.6,7.4,8,7.3,8.4c0,0.1-0.1,0.2-0.2,0.2c-0.1,0-0.2,0-0.3,0c-0.1,0-0.1-0.1-0.2-0.2C6.4,8,6.2,7.6,6.1,7.2c0,0.7,0,1.4,0,2.2
		c0,0.1,0,0.1-0.1,0.2C5.9,9.7,5.8,9.7,5.8,9.7H5.7c-0.1,0-0.2,0-0.2-0.1c0-0.1-0.1-0.1-0.1-0.2V5.9z"/>
	<path class="st1" d="M10.3,5.6c0.1,0,0.2,0,0.3,0c0.1,0.1,0.2,0.2,0.2,0.3c0.3,1.1,0.7,2.2,1,3.3c0,0.1,0,0.2,0,0.3
		c-0.1,0.1-0.2,0.1-0.3,0.1h-0.1c-0.1,0-0.2-0.1-0.3-0.2C11.1,9.2,11.1,9,11,8.8c-0.4,0-0.8,0-1.2,0C9.8,9,9.7,9.2,9.6,9.4
		c0,0.1,0,0.2-0.1,0.2c0,0.1-0.1,0.1-0.2,0.1H9.2c-0.1,0-0.2,0-0.2-0.1C9,9.5,8.9,9.5,8.9,9.4c0-0.1,0-0.1,0-0.2C9.3,8.1,9.7,7,10,6
		c0-0.1,0.1-0.2,0.1-0.3C10.2,5.6,10.2,5.6,10.3,5.6 M10.4,6.9c-0.1,0.4-0.2,0.8-0.4,1.2c0.2,0,0.5,0,0.7,0
		C10.6,7.7,10.5,7.3,10.4,6.9z"/>
	<path class="st1" d="M13.2,5.6c0.2,0,0.4,0,0.6,0C14,5.7,14.2,5.8,14.4,6c0.1,0.2,0.2,0.4,0.2,0.6c0,0.1,0,0.2-0.1,0.2
		c-0.1,0.1-0.2,0.1-0.3,0.1c-0.1,0-0.2-0.1-0.2-0.2c0,0,0-0.1,0-0.2c0-0.1-0.1-0.1-0.1-0.1c-0.1-0.1-0.2-0.1-0.3-0.1
		c-0.1,0-0.2,0-0.3,0c-0.1,0-0.2,0.1-0.2,0.2c-0.1,0.1,0,0.2,0,0.3c0,0.1,0.1,0.2,0.2,0.2c0.2,0.1,0.3,0.2,0.5,0.3
		c0.2,0.1,0.4,0.3,0.6,0.4c0.1,0.1,0.3,0.3,0.3,0.5c0.1,0.2,0.1,0.4,0.1,0.6c0,0.2-0.2,0.5-0.4,0.6c-0.2,0.2-0.5,0.2-0.7,0.3h-0.2
		c-0.3,0-0.6-0.1-0.8-0.3c-0.2-0.2-0.3-0.4-0.3-0.7c0-0.1,0-0.2,0-0.3c0-0.1,0.1-0.2,0.2-0.2c0.1,0,0.2,0,0.3,0
		c0.1,0,0.1,0.1,0.1,0.2c0,0.1,0,0.2,0,0.2c0,0.1,0.1,0.2,0.2,0.3C13.2,9,13.4,9,13.5,9c0.1,0,0.2,0,0.3-0.1
		c0.1-0.1,0.1-0.3,0.1-0.4c0-0.1-0.1-0.3-0.2-0.3c-0.2-0.1-0.4-0.2-0.5-0.3c-0.2-0.1-0.5-0.3-0.6-0.4c-0.1-0.1-0.2-0.3-0.3-0.5
		c0-0.1,0-0.2,0-0.3c0-0.2,0.1-0.4,0.2-0.6C12.7,5.8,12.9,5.7,13.2,5.6z"/>
	<path class="st1" d="M8.7,10.7c0.1,0,0.2,0,0.3,0.1C9,10.8,9,11,8.9,11.1c-0.1,0.1-0.2,0.1-0.3,0.1c-0.2,0.1-0.3,0.1-0.5,0.2
		c-0.1,0-0.2,0-0.2,0c-0.1-0.1-0.1-0.2-0.1-0.3C7.9,11.1,7.9,11,8,11C8.2,10.9,8.4,10.8,8.7,10.7z"/>
	<path class="st1" d="M3.2,11.8c0.1,0,0.2,0,0.2,0c0.1,0,0.2,0,0.2,0.1c0.1,0.1,0.1,0.2,0.2,0.3c0.2,0.6,0.5,1.1,0.7,1.7
		c0.3-0.6,0.5-1.2,0.8-1.8c0.1-0.1,0.2-0.2,0.3-0.2c0.1,0,0.2,0,0.3,0c0.1,0.1,0.2,0.2,0.2,0.3c0,1.2,0,2.4,0,3.7
		c0,0.1,0,0.2-0.1,0.2c-0.1,0.1-0.1,0.1-0.2,0.1H5.8c-0.1,0-0.2,0-0.2-0.1c-0.1-0.1-0.1-0.2-0.1-0.2c0-0.7,0-1.4,0-2.1
		c0-0.1,0-0.1,0-0.2c-0.2,0.4-0.3,0.8-0.5,1.2c0,0.1-0.1,0.2-0.2,0.2c-0.1,0-0.3,0-0.4-0.1c-0.1,0-0.1-0.1-0.1-0.2
		c-0.2-0.4-0.3-0.8-0.5-1.2c0,0.8,0,1.5,0,2.3c0,0.1,0,0.2-0.1,0.3c-0.1,0-0.1,0.1-0.2,0.1H3.3c-0.1,0-0.2-0.1-0.3-0.2
		C3,15.9,3,15.8,3,15.7c0-1.2,0-2.4,0-3.6C3,12,3.1,11.8,3.2,11.8z"/>
	<path class="st1" d="M7.6,11.9c0.2-0.1,0.4-0.2,0.6-0.2c0.2,0,0.4,0,0.6,0.1c0.3,0.1,0.5,0.4,0.6,0.7c0,0.1,0.1,0.3,0.1,0.4
		c0,0.6,0,1.2,0,1.8c0,0.1,0,0.3,0,0.4c-0.1,0.3-0.2,0.5-0.4,0.6c-0.2,0.2-0.4,0.2-0.7,0.2H8.1c-0.1,0-0.2,0-0.3-0.1
		c-0.4-0.1-0.7-0.4-0.8-0.8c-0.1-0.2,0-0.4,0-0.6c0-0.5,0-1,0-1.4c0-0.2,0-0.3,0-0.5C7,12.4,7.3,12.1,7.6,11.9 M8.1,12.5
		c-0.1,0-0.3,0.1-0.3,0.2c0,0.1-0.1,0.2-0.1,0.3c0,0.6,0,1.3,0,1.9c0,0.2,0.1,0.4,0.3,0.4c0.1,0.1,0.2,0.1,0.4,0.1
		c0.2,0,0.3-0.1,0.4-0.3c0-0.1,0.1-0.2,0.1-0.3c0-0.6,0-1.3,0-1.9c0-0.2-0.1-0.3-0.2-0.4C8.4,12.5,8.2,12.5,8.1,12.5z"/>
	<path class="st1" d="M10,11.9c0.1-0.2,0.4-0.3,0.6-0.1c0.1,0.1,0.1,0.2,0.1,0.3c0.2,0.8,0.4,1.6,0.6,2.4c0.2-0.8,0.4-1.6,0.6-2.3
		c0-0.1,0-0.2,0.1-0.3c0.1-0.1,0.4-0.1,0.5,0c0.1,0.1,0.1,0.2,0.1,0.3c-0.3,1.2-0.6,2.4-0.9,3.6c0,0.1-0.1,0.1-0.1,0.2
		c-0.1,0.1-0.2,0.1-0.2,0.1h-0.1c-0.1,0-0.3-0.1-0.3-0.2c0-0.1-0.1-0.2-0.1-0.3c-0.3-1.1-0.5-2.2-0.8-3.3C10,12.1,10,12,10,11.9z"/>
	<path class="st1" d="M14.8,11.9c0.1-0.2,0.5-0.2,0.6,0c0.1,0.1,0.1,0.2,0.1,0.3c0,1,0,2.1,0,3.1c0.4,0,0.8,0,1.2,0
		c0.1,0,0.2,0,0.2,0c0.1,0.1,0.2,0.2,0.2,0.3v0.1c0,0.1,0,0.2-0.1,0.2c-0.1,0.1-0.2,0.1-0.3,0.1c-0.5,0-1.1,0-1.6,0
		c-0.2,0-0.3-0.1-0.3-0.3c0-0.1,0-0.1,0-0.2c0-1.2,0-2.3,0-3.5C14.7,12,14.7,11.9,14.8,11.9z"/>
	<path class="st1" d="M13.4,11.8c0.1,0,0.3,0,0.4,0.1c0.1,0.1,0.2,0.2,0.2,0.3c0,0.7,0,1.5,0,2.2c0,0.1,0,0.2-0.1,0.3
		c-0.2,0.1-0.4,0.2-0.6,0.1c-0.1-0.1-0.2-0.2-0.2-0.3c0-0.7,0-1.5,0-2.2c0-0.1,0-0.2,0.1-0.3C13.3,11.8,13.4,11.8,13.4,11.8z"/>
	<path class="st1" d="M13.2,15.4c0.1-0.1,0.2-0.1,0.4-0.1c0.1,0,0.3,0,0.3,0.1c0.1,0.1,0.1,0.2,0.1,0.2c0,0.1,0,0.2,0,0.3
		c-0.1,0.1-0.2,0.2-0.4,0.2h-0.1c-0.1,0-0.3-0.1-0.4-0.2c0-0.1,0-0.2,0-0.3C13.1,15.5,13.1,15.4,13.2,15.4z"/>
</g>
</svg>
