<?xml version="1.0" encoding="utf-8"?>
<!-- Generator: Adobe Illustrator 21.0.0, SVG Export Plug-In . SVG Version: 6.00 Build 0)  -->
<svg version="1.1" id="Capa_1" xmlns="http://www.w3.org/2000/svg" xmlns:xlink="http://www.w3.org/1999/xlink" x="0px" y="0px"
	 viewBox="0 0 20 30" width="20" height="30" style="enable-background:new 0 0 20 30;" xml:space="preserve">
<style type="text/css">
	.st0{fill:#00557F;}
	.st1{fill:#74C828;}
</style>
<path class="st0" d="M19.8,10.1c0-5.4-4.4-9.8-9.8-9.8s-9.8,4.4-9.8,9.8S10,29.7,10,29.7S19.8,15.5,19.8,10.1z"/>
<path class="st1" d="M14.4,4.8c0.5-0.1,1-0.1,1.4,0.2c0.6,0.4,1,1,1.2,1.7
	c0.7,1.9,0.8,4,0.5,5.9c-0.1,0.5-0.3,1.1-0.8,1.3c-0.3,0.1-0.7,0.1-0.9-0.2c-0.3-0.4-0.2-0.9-0.2-1.4c0.1-0.7,0.1-1.5,0.1-2.3
	c0-0.3-0.1-0.7-0.4-0.9c-0.2-0.2-0.6-0.2-0.9,0c-0.4,0.3-0.7,0.7-0.9,1.1c-0.5,1.1-0.9,2.4-1.3,3.5c-0.2,0.6-0.5,1.1-1,1.4
	c-0.6,0.4-1.3,0.5-2,0.5c-0.9,0-1.7-0.6-2.2-1.4c-0.6-1-1.1-1.9-1.7-2.9c-0.2-0.3-0.4-0.6-0.8-0.6c-0.4,0-0.6,0.5-0.5,0.8
	c0,1.2,0.6,2.3,0.8,3.4c0.1,0.4,0,0.8-0.4,1c-0.2,0-0.4,0.1-0.7,0c-0.3-0.1-0.5-0.5-0.6-0.7c-0.5-1.2-0.8-2.5-1-3.7
	c0-0.7,0-1.3,0.1-2c0.2-1.1,0.5-2.2,1.3-3c0.7-0.7,1.8-0.9,2.7-0.3C7.1,7,7.6,7.8,8.1,8.6c0.4,0.6,0.7,1.3,1.4,1.6
	c0.5,0.2,1.1,0.1,1.5-0.3c0.3-0.3,0.4-0.6,0.5-0.9c0.3-0.7,0.6-1.4,0.9-2.1C12.8,5.9,13.5,5.1,14.4,4.8z"/>
</svg>
