<?xml version="1.0" encoding="utf-8"?>
<!-- Generator: Adobe Illustrator 21.0.0, SVG Export Plug-In . SVG Version: 6.00 Build 0)  -->
<svg version="1.1" id="Capa_1" xmlns="http://www.w3.org/2000/svg" xmlns:xlink="http://www.w3.org/1999/xlink" x="0px" y="0px"
	 viewBox="0 0 20 30" width="20" height="30" style="enable-background:new 0 0 20 30;" xml:space="preserve">
<style type="text/css">
	.st0{fill:#FF6600;}
	.st1{fill:#FFFFFF;}
</style>
<path class="st0" d="M19.8,10.1c0-5.4-4.4-9.8-9.8-9.8s-9.8,4.4-9.8,9.8S10,29.7,10,29.7S19.8,15.5,19.8,10.1z"/>
<g>
	<path class="st1" d="M16.7,8.1c0.2,0,0.4,0,0.7,0c0,0,0,0.1,0,0.1c-0.1,0-0.2,0-0.3,0c0,0.2,0,0.5,0,0.7c0,0-0.1,0-0.1,0
		c0-0.2,0-0.5,0-0.7c-0.1,0-0.2,0-0.3,0C16.7,8.2,16.7,8.2,16.7,8.1z"/>
	<path class="st1" d="M17.5,8.1c0.1,0,0.1,0,0.2,0c0.1,0.2,0.2,0.4,0.2,0.6c0.1-0.2,0.2-0.4,0.2-0.6c0.1,0,0.1,0,0.2,0
		c0,0.3,0,0.6,0,0.8c0,0-0.1,0-0.1,0c0-0.2,0-0.5,0-0.7c-0.1,0.2-0.2,0.5-0.3,0.7C18,9,18,9,18,9c-0.1-0.2-0.2-0.5-0.3-0.7
		c0,0.2,0,0.5,0,0.7c0,0-0.1,0-0.1,0C17.5,8.7,17.5,8.4,17.5,8.1z"/>
	<path class="st1" d="M3.1,9c0.3,0,0.6,0.1,0.8,0.2c0.2,0.1,0.4,0.4,0.4,0.6c0.1,0.3,0.1,0.5,0.1,0.8c0,0.2-0.1,0.5-0.3,0.6
		c-0.2,0.2-0.4,0.3-0.7,0.4c-0.3,0.1-0.6,0-0.8-0.1c-0.2-0.1-0.4-0.2-0.5-0.4c-0.2-0.2-0.2-0.5-0.2-0.8C1.9,10,2,9.7,2.2,9.5
		C2.4,9.2,2.8,9,3.1,9 M3.1,9.6c-0.1,0-0.3,0.1-0.3,0.2c-0.1,0.1-0.1,0.3-0.1,0.5c0,0.2,0,0.4,0.1,0.6C2.8,11,2.9,11.1,3,11.1
		c0.2,0,0.4,0,0.5-0.1c0.1-0.1,0.2-0.2,0.2-0.4c0-0.2,0-0.3,0-0.5c0-0.2-0.1-0.3-0.2-0.4C3.4,9.6,3.2,9.6,3.1,9.6z"/>
	<path class="st1" d="M5.5,9.4C5.7,9.2,6,9,6.3,9c0,0.2,0,0.4,0,0.6c-0.2,0-0.4,0-0.6,0.1c-0.1,0-0.2,0.1-0.2,0.2c0,0.6,0,1.1,0,1.7
		c-0.2,0-0.5,0-0.7,0c0-0.8,0-1.7,0-2.5c0.2,0,0.4,0,0.6,0C5.5,9.2,5.5,9.3,5.5,9.4z"/>
	<path class="st1" d="M7.2,9.1C7.5,9,7.7,9,8,9.1c0.2,0,0.5,0.1,0.6,0.3c0.1,0.1,0.1,0.3,0.1,0.5c0,0.6,0,1.2,0,1.8
		c-0.2,0-0.4,0-0.6,0c0-0.1,0-0.1-0.1-0.2c-0.2,0.1-0.4,0.2-0.6,0.2c-0.2,0-0.4,0-0.6-0.1c-0.2-0.1-0.3-0.2-0.4-0.4
		c-0.1-0.2-0.1-0.5,0.1-0.7c0.1-0.2,0.3-0.3,0.5-0.4c0.3-0.1,0.7-0.2,1-0.2c0-0.1,0-0.2-0.1-0.3C7.9,9.5,7.8,9.5,7.6,9.5
		c-0.2,0-0.4,0.1-0.5,0.3C6.9,9.7,6.8,9.6,6.6,9.5C6.8,9.3,7,9.2,7.2,9.1 M7.5,10.5c-0.1,0-0.2,0.1-0.3,0.2c-0.1,0.1-0.1,0.3,0,0.4
		c0.1,0.1,0.1,0.1,0.2,0.1c0.2,0,0.5-0.1,0.6-0.3c0-0.2,0-0.4,0-0.6C7.9,10.4,7.7,10.4,7.5,10.5z"/>
	<path class="st1" d="M10.5,9.1c0.2,0,0.4,0,0.6,0.1c0.1,0.1,0.3,0.2,0.3,0.4c0,0.1,0.1,0.2,0.1,0.4c0,0.6,0,1.2,0,1.8
		c-0.2,0-0.4,0-0.7,0c0-0.6,0-1.1,0-1.7c0-0.1,0-0.2-0.1-0.3c-0.1-0.1-0.2-0.1-0.3-0.1c-0.2,0-0.4,0.1-0.5,0.3c0,0.6,0,1.2,0,1.8
		c-0.2,0-0.4,0-0.7,0c0-0.8,0-1.6,0-2.5c0.2,0,0.4-0.1,0.6-0.1c0,0.1,0,0.2,0.1,0.3C10.1,9.2,10.3,9.1,10.5,9.1z"/>
	<path class="st1" d="M12.3,9.4c0.2-0.2,0.4-0.4,0.7-0.4c0.2,0,0.4,0,0.5,0.1c0.1,0,0.2,0.1,0.3,0.3c0-0.1,0-0.2,0-0.3
		c0.2,0,0.4,0,0.6,0c0,0.8,0,1.7,0,2.5c0,0.2-0.1,0.5-0.2,0.7c-0.2,0.2-0.5,0.3-0.8,0.3c-0.3,0-0.7,0-0.9-0.1
		c-0.2-0.1-0.3-0.3-0.4-0.5c0.2,0,0.4-0.1,0.7-0.1c0,0.1,0,0.1,0.1,0.2c0.1,0.1,0.3,0.1,0.4,0.1c0.1,0,0.3,0,0.4-0.1
		c0.1-0.1,0.1-0.3,0.1-0.4c0-0.1,0-0.2,0-0.3c-0.1,0.1-0.1,0.2-0.3,0.3c-0.2,0.1-0.4,0.1-0.5,0.1c-0.3,0-0.5-0.1-0.6-0.4
		C12.1,11,12,10.7,12,10.4C12,10.1,12.1,9.7,12.3,9.4 M13.1,9.5c-0.1,0-0.2,0.1-0.3,0.1c-0.1,0.1-0.1,0.2-0.2,0.4c0,0.2,0,0.3,0,0.5
		c0,0.2,0.1,0.3,0.2,0.4c0.1,0.1,0.2,0.1,0.3,0.1c0.1,0,0.3,0,0.4-0.1c0.1-0.1,0.1-0.2,0.2-0.4c0-0.1,0-0.3,0-0.4
		c0-0.2-0.1-0.4-0.2-0.5C13.4,9.5,13.2,9.5,13.1,9.5z"/>
	<path class="st1" d="M15.1,9.4c0.2-0.2,0.4-0.3,0.7-0.4c0.3,0,0.6,0,0.9,0.2C16.8,9.3,17,9.6,17,9.8c0.1,0.2,0.1,0.4,0.1,0.7
		c-0.6,0-1.1,0-1.7,0c0,0.2,0,0.3,0.1,0.5c0.1,0.1,0.2,0.2,0.3,0.2c0.1,0,0.3,0,0.4-0.1c0.1-0.1,0.2-0.2,0.3-0.3
		c0.2,0.1,0.3,0.2,0.5,0.3c-0.2,0.3-0.4,0.4-0.7,0.5c-0.3,0.1-0.6,0.1-0.9-0.1c-0.2-0.1-0.4-0.3-0.5-0.5c-0.1-0.3-0.2-0.6-0.1-0.9
		C14.8,9.9,14.9,9.6,15.1,9.4 M15.6,9.6c-0.1,0.1-0.1,0.2-0.1,0.4c0.3,0,0.7,0,1,0c0-0.1,0-0.3-0.1-0.4c-0.1-0.1-0.3-0.2-0.4-0.2
		C15.8,9.5,15.7,9.5,15.6,9.6z"/>
</g>
</svg>
