<?xml version="1.0" encoding="utf-8"?>
<!-- Generator: Adobe Illustrator 21.0.0, SVG Export Plug-In . SVG Version: 6.00 Build 0)  -->
<svg version="1.0" id="Capa_1" xmlns="http://www.w3.org/2000/svg" xmlns:xlink="http://www.w3.org/1999/xlink" x="0px" y="0px"
	 width="20px" height="30px" viewBox="0 0 20 30" style="enable-background:new 0 0 20 30;" xml:space="preserve">
<style type="text/css">
	.st0{fill:#161616;}
	.st1{fill:#FFFFFF;}
</style>
<path class="st0" d="M19.8,10.1c0-5.4-4.4-9.8-9.8-9.8s-9.8,4.4-9.8,9.8S10,29.7,10,29.7S19.8,15.5,19.8,10.1z"/>
<path class="st1" d="M17.3,9.6l-0.8,0.8c-0.1,0.1-0.2,0.1-0.3,0.1s-0.2,0-0.2-0.1c-1.1-1-2.4-1.7-3.9-2.1c-1.4-0.4-2.8-0.4-4.3,0
	C6.4,8.6,5.1,9.3,4,10.4c-0.1,0.1-0.1,0.1-0.2,0.1s-0.2,0-0.3-0.1L2.7,9.6C2.6,9.5,2.6,9.4,2.6,9.3S2.6,9.1,2.7,9
	C4,7.8,5.6,6.9,7.4,6.5c1.7-0.4,3.5-0.4,5.2,0C14.4,6.9,16,7.8,17.3,9c0.1,0.1,0.1,0.1,0.1,0.3S17.4,9.5,17.3,9.6z M14.7,12.2
	L13.9,13c-0.1,0.1-0.2,0.1-0.3,0.1s-0.2,0-0.3-0.1c-0.6-0.5-1.4-0.9-2.2-1.1s-1.6-0.2-2.4,0S7.2,12.5,6.6,13
	c-0.1,0.1-0.2,0.1-0.3,0.1s-0.2,0-0.3-0.1l-0.8-0.8c-0.1-0.1-0.1-0.2-0.1-0.3s0.1-0.2,0.1-0.3c0.9-0.8,1.9-1.3,3-1.6s2.3-0.3,3.4,0
	s2.1,0.8,3,1.6c0.1,0.1,0.1,0.2,0.1,0.3S14.8,12.2,14.7,12.2z M11.5,15.1c0-0.4-0.1-0.8-0.4-1.1s-0.6-0.4-1.1-0.4s-0.8,0.1-1.1,0.4
	s-0.4,0.6-0.4,1.1s0.1,0.8,0.4,1.1c0.3,0.3,0.6,0.4,1.1,0.4s0.8-0.1,1.1-0.4C11.4,15.9,11.5,15.6,11.5,15.1z"/>
</svg>
