<?xml version="1.0" encoding="utf-8"?>
<!-- Generator: Adobe Illustrator 21.0.0, SVG Export Plug-In . SVG Version: 6.00 Build 0)  -->
<svg version="1.1" id="Capa_1" xmlns="http://www.w3.org/2000/svg" xmlns:xlink="http://www.w3.org/1999/xlink" x="0px" y="0px"
	 viewBox="0 0 20 30" width="20" height="30" style="enable-background:new 0 0 20 30;" xml:space="preserve">
<style type="text/css">
	.st0{fill:#EE3023;}
	.st1{fill:#FFFFFF;}
</style>
<path class="st0" d="M19.8,10.1c0-5.4-4.4-9.8-9.8-9.8s-9.8,4.4-9.8,9.8S10,29.7,10,29.7S19.8,15.5,19.8,10.1z"/>
<path class="st1" d="M13.3,3.5c-1.4,0.3-2.5,1.6-2.5,3.1c0,0.1,0,0.1,0,0.1c2.4,0.6,3.5,2,3.5,4c0,2-1.6,4.2-4.2,4.2l0,0
	c-2.1,0-4.4-1.8-4.4-4.8c0-1.9,1-3.8,2.4-4.9c1.3-1.1,3.1-1.8,4.7-1.8C13,3.5,13.2,3.5,13.3,3.5c-1-0.5-2.1-0.8-3.3-0.8
	c-4.3,0-7.8,3.5-7.8,7.8s3.5,7.8,7.8,7.8c4.3,0,7.8-3.5,7.8-7.8C17.8,7.5,16,4.8,13.3,3.5z"/>
</svg>
